<?xml version="1.0" encoding="UTF-8" standalone="no"?>
<!-- Created with Inkscape (http://www.inkscape.org/) -->

<svg
   width="210mm"
   height="297mm"
   viewBox="0 0 210 297"
   version="1.1"
   id="svg1"
   xml:space="preserve"
   inkscape:export-filename="bitmap.png"
   inkscape:export-xdpi="96"
   inkscape:export-ydpi="96"
   inkscape:version="1.3.2 (091e20e, 2023-11-25, custom)"
   sodipodi:docname="logo_moksha.svg"
   xmlns:inkscape="http://www.inkscape.org/namespaces/inkscape"
   xmlns:sodipodi="http://sodipodi.sourceforge.net/DTD/sodipodi-0.dtd"
   xmlns="http://www.w3.org/2000/svg"
   xmlns:svg="http://www.w3.org/2000/svg"><sodipodi:namedview
     id="namedview1"
     pagecolor="#ffffff"
     bordercolor="#666666"
     borderopacity="1.0"
     inkscape:showpageshadow="2"
     inkscape:pageopacity="0.0"
     inkscape:pagecheckerboard="0"
     inkscape:deskcolor="#d1d1d1"
     inkscape:document-units="mm"
     inkscape:export-bgcolor="#ffffff00"
     inkscape:zoom="1.0343421"
     inkscape:cx="355.78172"
     inkscape:cy="218.97978"
     inkscape:window-width="1920"
     inkscape:window-height="1017"
     inkscape:window-x="1912"
     inkscape:window-y="-8"
     inkscape:window-maximized="1"
     inkscape:current-layer="layer1" /><defs
     id="defs1" /><g
     inkscape:label="Capa 1"
     inkscape:groupmode="layer"
     id="layer1"><path
       id="path15"
       style="fill:#00aad4;stroke:none;stroke-width:0.594694"
       d="m 10.0284,47.111592 c 5.99093,-6.48001 15.692011,-9.99784 24.388639,-10.37865 2.672816,-0.11704 5.23017,0.33252 7.867303,0.59636 9.911712,0.99168 19.589901,3.4221 29.109021,6.30501 7.058859,2.13781 13.97822,4.72829 21.241718,6.1836 7.798649,1.56254 15.507639,2.90074 23.444569,3.44426 1.47464,0.10098 2.92332,0.14326 4.40569,0.14326 0.56924,0 1.49799,-0.17029 1.99548,0.16171 0.56844,0.37936 0.36547,1.48402 0.17142,2.02401 -0.2604,0.72466 -1.05505,0.64742 -1.69487,0.64639 -1.62901,-0.002 -3.24633,-0.15723 -4.87772,-0.15723 -7.14186,0 -14.43772,-1.30445 -21.39907,-2.83441 -11.185447,-2.45833 -22.382064,-5.71748 -33.357364,-8.97224 -10.491201,-3.11122 -20.989256,-6.39243 -32.098597,-5.31736 -3.992257,0.38634 -8.319754,1.66843 -11.800954,3.65951 -2.260915,1.29314 -4.914334,3.84443 -7.395265,4.49578 m 142.39819,-3.46162 c -1.32831,1.84048 -3.25722,3.24175 -5.19242,4.39538 -0.48505,0.28914 -2.00676,0.84121 -2.30581,-0.0367 -0.22512,-0.66084 1.24973,-1.28547 1.67642,-1.52477 1.74315,-0.97761 3.71587,-3.45642 5.82181,-2.83393"
       inkscape:export-filename="moksha_logo.png"
       inkscape:export-xdpi="96"
       inkscape:export-ydpi="96" /><path
       style="fill:#55ddff;stroke:none;stroke-width:0.594694"
       d="m 69.34789,42.705922 c 0,-0.6562 0.163642,-1.60584 -0.27414,-2.15513 -0.580632,-0.72852 -2.327861,-0.98399 -3.187473,-1.2981 -3.00012,-1.0963 -6.058611,-1.87617 -9.126072,-2.75052 -10.088135,-2.87555 -21.685493,-4.94545 -31.94125,-1.99245 -2.539128,0.73111 -4.825722,1.87178 -7.080573,3.23191 -1.142867,0.68938 -2.323676,1.79609 -3.618959,2.13206 0.648551,-1.22437 2.015652,-2.0581 3.146921,-2.80552 2.69712,-1.78195 5.599694,-3.25873 8.654034,-4.32908 9.907404,-3.47191 21.304002,-2.03309 31.311865,0.47337 4.042787,1.01252 8.14458,2.80058 12.272993,3.35696"
       id="path6"
       sodipodi:nodetypes="cssssscsssc" /><path
       id="path6-5"
       style="fill:#808080;stroke:none;stroke-width:0.594694"
       d="m 91.624118,28.526862 c -2.716323,1.95373 -4.800601,5.70306 -6.844434,8.33934 -0.473815,0.61116 -1.756247,2.79969 -2.588316,2.79969 -0.753266,0 -1.854299,-1.9457 -2.303131,-2.485 -2.028543,-2.43744 -3.942165,-5.84461 -6.516262,-7.70995 l -0.314692,9.44075 -0.161716,3.52402 -2.985205,0.25229 c -0.251473,-2.1907 -0.08752,-3.87712 0.157346,-6.1365 0.009,-3.25134 0.960134,-7.54398 -0.01178,-10.69952 -0.439487,-1.42691 -2.02283,-2.19564 -2.505758,-3.61897 1.186202,-0.35062 3.749099,-0.49247 4.877728,0.0719 1.168365,0.58422 1.975863,1.92581 2.769339,2.9177 1.701223,2.12664 3.35256,4.29778 5.019411,6.45119 0.754068,0.97418 1.617718,2.47972 2.753435,3.04688 1.019048,0.50889 2.850275,-2.66875 3.422277,-3.36157 1.962552,-2.37711 3.651617,-4.96697 5.548638,-7.39527 1.041535,-1.33322 2.548557,-2.53239 4.394156,-1.97727 0.779086,0.23434 0.498545,1.0448 0.483687,1.66258 -0.03682,1.53079 -0.2774,3.04066 -0.314691,4.56304 -0.06909,2.82037 -0.309343,5.68428 0.06447,8.49668 0.179406,1.34979 0.866094,4.22186 0.310197,5.47118 -0.398359,0.89526 -4.833868,0.84215 -5.407676,0.0827 -0.320444,-0.42412 -0.161715,-1.27853 -0.161715,-1.77754 0,-1.52862 0.15676,-3.04125 0.157346,-4.56304 9.51e-4,-2.39649 0.717248,-5.04345 0.157346,-7.39526 m 35.627122,5.83972 c 2.04816,-0.6027 3.20624,-2.58832 4.87773,-3.76951 2.01485,-1.42382 4.38235,-1.58025 6.76588,-1.58025 -1.2689,2.09118 -5.436,2.13833 -6.43031,4.42037 -0.35614,0.81739 0.83982,2.08536 1.31098,2.66019 1.7933,2.18792 4.76668,3.95154 6.06341,6.45119 -1.26759,0.30179 -4.00236,0.56775 -5.19242,-0.0282 -0.97735,-0.4894 -1.77186,-1.69647 -2.50407,-2.48949 -0.71316,-0.77241 -2.47328,-3.73441 -3.6385,-3.63754 -2.17249,0.1806 -1.09535,5.11502 -1.09535,6.46988 l -3.61896,-0.13063 -1.41114,-0.279 -0.0168,-1.47852 0.32027,-3.93365 -0.30849,-14.94788 c 1.22482,-0.22739 3.36146,-0.37367 4.27128,0.69131 0.77126,0.90276 0.60644,2.4581 0.60644,3.55704 v 8.02465 m 39.02183,-4.56304 c 2.83664,-0.28429 7.02262,-2.97782 9.56459,-0.29769 1.98511,2.09299 0.97759,7.37562 0.97759,10.05315 0,0.70842 0.37106,2.83967 -0.49536,3.09689 -0.67458,0.20028 -3.94446,0.38906 -4.3718,-0.20226 -0.36364,-0.50318 0.0621,-1.84109 0.12019,-2.4226 0.21401,-2.14029 0.74358,-4.46082 0.64856,-6.60853 -0.11465,-2.5915 -3.27124,-3.45008 -5.34235,-2.59888 -2.36476,0.97188 -1.43554,6.44004 -1.23206,8.57803 0.0688,0.72313 0.58985,2.97085 -0.36471,3.25424 -0.67458,0.20027 -3.9445,0.38906 -4.37182,-0.20226 -0.52452,-0.72584 0.035,-3.41742 0.12008,-4.31075 0.29914,-3.1433 0.0269,-6.43991 0.0267,-9.59811 -1e-4,-1.50437 -0.0936,-3.0697 -0.26977,-4.56303 -0.0543,-0.46039 -0.2143,-1.39247 0.20736,-1.72644 0.40533,-0.32103 1.30925,-0.17208 1.79322,-0.15941 3.87573,0.10143 2.98957,5.05911 2.98957,7.70765 m -10.07015,2.36019 c -1.41009,-0.40887 -2.56499,-1.2803 -3.93365,-1.77876 -1.55324,-0.56568 -3.26203,-0.7832 -4.87773,-0.32817 -0.5892,0.16594 -2.0657,0.96392 -1.22623,1.67775 0.69914,0.59449 2.08713,0.65688 2.95704,0.83056 3.44078,0.68696 8.77233,0.81162 8.65172,5.42042 -0.0237,0.90377 -0.33802,1.62218 -0.9624,2.27921 -2.98977,3.14618 -7.38491,3.42969 -11.30828,2.2054 -1.22476,-0.38218 -4.71701,-1.40265 -3.83859,-3.34664 0.45235,-1.00107 2.29271,0.26106 2.89451,0.55217 2.20494,1.0666 4.64298,1.69881 7.08058,1.10446 1.1712,-0.28557 2.39316,-0.96598 2.35084,-2.32256 -0.0392,-1.25746 -1.26753,-2.08702 -2.35084,-2.46108 -2.49077,-0.86004 -5.2158,-0.74307 -7.70996,-1.57868 -1.88303,-0.63086 -2.5837,-2.66595 -1.17549,-4.2322 2.27089,-2.52574 7.32253,-2.44958 10.30156,-1.46941 1.70909,0.56234 4.39207,1.22465 3.14692,3.44753 m 36.34694,9.59811 c -3.14511,0.42387 -6.12134,1.62349 -9.28342,0.39847 -3.64888,-1.41363 -3.91876,-6.01118 -0.62938,-8.06569 2.11034,-1.31809 5.27795,-1.5473 7.70996,-1.45254 0.61336,0.0239 2.33428,0.53529 2.41568,-0.49547 0.096,-1.2162 -1.29836,-1.82155 -2.25834,-1.961 -2.45471,-0.35655 -4.34678,0.44944 -6.60853,1.19855 -0.57559,0.19065 -2.18199,0.27705 -1.92726,-0.77811 0.25751,-1.06667 2.76809,-1.435 3.65806,-1.60187 3.23849,-0.60722 5.95225,-0.72009 9.12607,0.32745 0.72103,0.23797 1.99856,0.40781 2.55809,0.93363 0.5883,0.55286 0.27414,2.25891 0.27414,2.99989 0,2.76502 0.601,5.94669 0.28519,8.651 -0.15749,1.34868 -5.08937,1.26028 -5.32026,-0.15431 m -2.83223,-7.8004 c -1.67199,0.2277 -3.44509,0.78998 -4.41043,2.29341 -2.0489,3.19094 1.65061,5.22806 4.41043,4.83038 0.76105,-0.10967 2.5505,-0.40711 2.98522,-1.09802 0.49261,-0.78294 0.1617,-2.51611 0.1617,-3.41779 0,-0.59574 0.27006,-2.09947 -0.25229,-2.51317 -0.56744,-0.44942 -2.22022,-0.18666 -2.89463,-0.0948 m -81.19056,-4.87158 c -6.47092,1.16627 -5.63546,14.28435 1.41611,13.04697 4.28012,-0.75106 5.40135,-5.20838 4.3383,-8.87172 -0.72619,-2.50248 -3.00735,-4.67036 -5.75441,-4.17525 m -0.94408,-1.44416 c 4.23568,-0.52048 8.29456,0.72836 10.48731,4.67534 2.84487,5.12081 -2.10513,10.4413 -7.18304,10.9869 -3.79993,0.40829 -8.11761,-0.93315 -10.15612,-4.37837 -2.964332,-5.00994 1.75874,-10.65804 6.85185,-11.28387" /><path
       style="fill:#37c8ab;stroke:none;stroke-width:0.594694"
       d="m 110.57256,26.184592 c -3.30708,-0.58952 -5.19838,-4.05894 -6.24358,-6.92323 -0.29011,-0.79503 -0.93361,-2.43279 -0.56054,-3.26045 0.59428,-1.31843 4.72316,0.0769 5.2122,1.078 0.63258,1.2949 -0.55639,3.86869 -0.43889,5.32937 0.12395,1.54079 1.44374,2.44128 2.03081,3.77631"
       id="path5" /><path
       id="path4"
       style="fill:#00aad4;stroke:none;stroke-width:0.594694"
       d="m 111.83135,24.768472 c -1.25479,-0.6268 -1.1697,-2.09256 -1.28548,-3.30426 -0.29969,-3.13628 0.73657,-6.09076 1.87261,-8.96873 0.29594,-0.74974 0.82878,-3.1231098 1.65105,-3.3953298 0.84749,-0.28057 2.10896,1.2862598 2.57217,1.8224698 2.18983,2.53494 2.0238,5.41645 0.0302,8.02404 -1.55448,2.03325 -3.71825,3.47563 -4.84058,5.82181 m 4.56301,2.04548 c -0.52212,0.1077 -1.0399,0.26226 -1.57346,0.30048 -0.61457,0.044 -2.86326,-0.34765 -1.91402,-1.46431 0.99614,-1.17183 3.33772,-0.17978 3.48748,1.16383" /><path
       style="font-style:italic;font-weight:bold;font-size:25.4px;line-height:1.25;font-family:'Palatino Linotype';-inkscape-font-specification:'Palatino Linotype Bold Italic';fill:#666666;stroke-width:0.157346"
       d="m 124.04699,53.562312 0.007,-0.10326 q 0.57529,-0.48679 1.20222,-0.95883 0.62692,-0.47204 0.97358,-0.6638 0.34665,-0.19177 0.61217,-0.19177 0.46466,0 0.46466,0.49417 0,0.26552 -0.14013,0.92932 -0.13276,0.6638 -0.42779,1.8144 0.61218,-0.95882 1.09896,-1.51937 0.49417,-0.56792 1.32762,-1.12109 0.84081,-0.56055 1.49724,-0.56055 0.2729,0 0.45729,0.18439 0.19176,0.17702 0.30977,0.6638 0.11801,0.47942 0.11801,0.96621 0,0.9072 -0.3614,2.02091 -0.36141,1.11372 -0.73756,1.63001 -0.32453,0.45729 -1.09159,0.98833 -0.76706,0.52367 -1.28335,0.76706 -0.50892,0.24339 -1.20223,0.24339 -0.47941,0 -0.85557,-0.0959 -0.16963,0.70806 -0.40565,1.76277 -0.22865,1.05471 -0.26552,1.29073 -0.0369,0.23602 -0.059,0.68593 -0.17702,0.007 -0.8777,0.13276 -0.70068,0.13276 -0.80394,0.18439 l -0.15489,-0.11801 0.67118,-2.5372 q 0.34665,-1.40874 0.84819,-3.78368 0.50892,-2.38232 0.59005,-2.95024 0.0221,-0.15489 0.0221,-0.26552 0,-0.14014 -0.0664,-0.22865 -0.0664,-0.0959 -0.15489,-0.0959 -0.0885,0 -0.27289,0.12538 -0.18439,0.11801 -0.78182,0.5753 l -0.10325,-0.007 z m 2.14629,4.44011 q 0.71544,0.39828 1.42349,0.39828 0.33928,0 0.6048,-0.14751 0.2729,-0.15489 0.53105,-0.5753 0.26552,-0.42041 0.49416,-1.13584 0.23602,-0.71543 0.39091,-1.38661 0.16226,-0.67118 0.16226,-1.37924 0,-0.47204 -0.0885,-0.6638 -0.0811,-0.19915 -0.28765,-0.19915 -0.20652,0 -0.60479,0.20652 -0.39091,0.20652 -0.87033,0.74494 -0.47203,0.53104 -0.84081,1.22435 -0.36878,0.68593 -0.50155,1.14322 -0.12538,0.45728 -0.41303,1.77014 z m 6.61591,-1.28336 h 0.33191 l 0.0664,0.0664 0.0221,0.65643 q 0.28764,0.35403 0.79656,0.61955 0.51629,0.25815 1.08421,0.25815 0.39828,0 0.72281,-0.11801 0.3319,-0.12538 0.49416,-0.42041 0.16227,-0.29502 0.16227,-0.6048 0,-0.28027 -0.14014,-0.48679 -0.13276,-0.20651 -0.3614,-0.32453 -0.22865,-0.12538 -0.73756,-0.23601 -0.74494,-0.16964 -1.05472,-0.25815 -0.30239,-0.0959 -0.54579,-0.28765 -0.23601,-0.19176 -0.39828,-0.53104 -0.15488,-0.33928 -0.15488,-0.73756 0,-0.39828 0.1475,-0.75969 0.15489,-0.36878 0.42779,-0.62692 0.28027,-0.26553 0.89982,-0.64906 0.61955,-0.38353 0.95146,-0.48678 0.3319,-0.11064 0.81131,-0.11064 0.99571,0 1.83653,0.47204 -0.14752,0.70806 -0.25815,1.72589 l -0.0664,0.059 h -0.32452 l -0.0664,-0.059 -0.0811,-0.67855 q -0.3319,-0.32453 -0.79657,-0.50154 -0.45728,-0.17702 -0.88507,-0.17702 -0.51629,0 -0.86294,0.3024 -0.34665,0.29502 -0.34665,0.76706 0,0.50892 0.34665,0.73756 0.34665,0.22127 1.34235,0.41304 0.69331,0.13276 1.02522,0.29502 0.33927,0.15489 0.56054,0.52367 0.22127,0.36877 0.22127,0.85557 0,0.50891 -0.21389,0.9072 -0.2139,0.3909 -0.87033,0.90719 -0.65643,0.50892 -1.15059,0.71543 -0.49416,0.20652 -1.28335,0.20652 -0.39829,0 -0.81132,-0.059 -0.41303,-0.059 -1.16534,-0.35403 l -0.0295,-0.0738 q 0.0738,-0.25077 0.16964,-0.91457 0.10326,-0.6638 0.11801,-0.96621 z m 8.84334,-7.30184 q 0,-0.45728 0.28765,-0.78181 0.28765,-0.32453 0.73756,-0.32453 0.38353,0 0.6048,0.23602 0.22127,0.22865 0.22127,0.59743 0,0.44991 -0.26552,0.81869 -0.26553,0.3614 -0.74494,0.3614 -0.44991,0 -0.64905,-0.25814 -0.19177,-0.25815 -0.19177,-0.64906 z m -2.31593,4.46961 -0.14752,-0.25814 0.0148,-0.0959 q 1.29811,-1.01046 2.02092,-1.43087 0.73018,-0.42041 1.13584,-0.42041 0.18439,0 0.31715,0.16226 0.13276,0.15489 0.13276,0.39829 0,0.32452 -0.11801,0.81869 -0.11064,0.49416 -0.47942,1.8734 -0.64167,2.37494 -0.64167,2.7511 0,0.10325 0.059,0.18439 0.0664,0.0737 0.14751,0.0737 0.22126,0 1.1801,-0.68593 l 0.0885,0.007 0.16226,0.29503 -0.0295,0.0959 q -0.51629,0.36878 -1.23173,0.84819 -0.71543,0.47204 -1.02521,0.59005 -0.30239,0.11801 -0.53104,0.11801 -0.28765,0 -0.42778,-0.21389 -0.14014,-0.2139 -0.14014,-0.55317 0,-0.33928 0.0811,-0.76706 0.0885,-0.43516 0.36878,-1.49725 0.61955,-2.36757 0.61955,-2.78797 0,-0.20652 -0.16964,-0.20652 -0.28027,0 -1.28335,0.70806 z m 1.00308,5.48745 z m 9.41863,-2.16843 0.16964,0.30978 -0.0221,0.0885 q -1.26123,0.90719 -2.07254,1.2686 -0.81132,0.3614 -1.53413,0.3614 -0.57529,0 -1.04733,-0.28027 -0.47204,-0.2729 -0.67856,-0.75969 -0.19914,-0.48678 -0.19914,-1.03258 0,-0.66381 0.14752,-1.40874 0.15488,-0.74493 0.38353,-1.29073 0.23601,-0.55317 0.4499,-0.82607 0.22127,-0.27289 0.50892,-0.48678 0.29503,-0.2139 1.03996,-0.67118 0.53842,-0.34665 0.73756,-0.44992 0.19914,-0.10325 0.51629,-0.17701 0.31715,-0.0811 0.67856,-0.0811 0.70805,0 1.56362,0.36141 l 0.0221,0.0811 q -0.11063,0.26553 -0.2729,0.93671 -0.15488,0.6638 -0.20651,1.07683 l -0.0811,0.0664 h -0.37616 l -0.0516,-0.0664 q 0.059,-0.39828 0.059,-0.73018 0,-0.0664 -0.007,-0.22127 -0.6343,-0.55317 -1.35711,-0.55317 -0.52366,0 -0.82606,0.19914 -0.3024,0.19177 -0.50892,0.5753 -0.19914,0.38353 -0.44991,1.41611 -0.24339,1.02521 -0.24339,1.82915 0,0.6638 0.30239,1.06946 0.3024,0.40566 0.83345,0.40566 0.43516,0 0.9662,-0.19176 0.53842,-0.19914 1.47512,-0.8187 z m 1.47512,-0.37615 q 0,-0.68593 0.22865,-1.71852 0.23601,-1.03996 0.79656,-1.73326 0.56792,-0.70068 1.52675,-1.19485 0.95883,-0.50154 1.97666,-0.50154 1.04733,0 1.70376,0.59742 0.65643,0.59743 0.65643,1.79227 0,1.08422 -0.40566,2.22006 -0.40565,1.12847 -1.08421,1.65213 -0.67118,0.52367 -1.41612,0.89983 -0.73755,0.36878 -1.68163,0.36878 -0.89983,0 -1.40137,-0.34666 -0.50154,-0.34665 -0.70068,-0.89245 -0.19914,-0.54579 -0.19914,-1.14321 z m 1.74064,-0.059 q 0,0.89983 0.33928,1.30549 0.33927,0.40565 0.97358,0.40565 0.43516,0 0.77444,-0.24339 0.34665,-0.2434 0.6343,-0.87032 0.29502,-0.6343 0.47203,-1.571 0.18439,-0.93671 0.18439,-1.70377 0,-0.9662 -0.37615,-1.34973 -0.37616,-0.38353 -0.91457,-0.38353 -0.56793,0 -1.00309,0.43516 -0.42778,0.43516 -0.75968,1.70376 -0.32453,1.26123 -0.32453,2.27168 z m 2.60359,-5.53169 z m -1.77015,8.13528 z m 9.33014,-2.10942 0.16963,0.28765 -0.0295,0.0959 q -1.63738,1.15797 -2.07254,1.35711 -0.43516,0.20652 -0.71543,0.20652 -0.31715,0 -0.44991,-0.25815 -0.13277,-0.25077 -0.13277,-0.58267 0,-0.67118 0.44254,-2.6921 l 1.02521,-4.68349 q 0.0885,-0.38354 0.17702,-0.92196 0.0959,-0.54579 0.0959,-0.67855 0,-0.16226 -0.0959,-0.25815 -0.0885,-0.10326 -0.34666,-0.11063 -0.25077,-0.007 -0.74493,-0.0147 l -0.059,-0.0664 0.0442,-0.31715 0.0738,-0.0664 q 1.60788,-0.19914 3.00186,-0.6933 l 0.18439,0.16226 q -0.62692,2.61096 -1.23172,5.50219 l -0.70806,3.34115 q -0.0959,0.44991 -0.0959,0.72281 0,0.31715 0.19914,0.31715 0.28765,0 1.18747,-0.65643 z m 1.52675,-0.43516 q 0,-0.68593 0.22864,-1.71852 0.23601,-1.03995 0.79656,-1.73326 0.56792,-0.70068 1.52675,-1.19485 0.95883,-0.50154 1.97666,-0.50154 1.04734,0 1.70377,0.59743 0.65642,0.59742 0.65642,1.79227 0,1.08421 -0.40565,2.22005 -0.40566,1.12847 -1.08422,1.65213 -0.67118,0.52367 -1.41611,0.89983 -0.73756,0.36878 -1.68164,0.36878 -0.89982,0 -1.40136,-0.34665 -0.50154,-0.34666 -0.70068,-0.89245 -0.19914,-0.5458 -0.19914,-1.14322 z m 1.74064,-0.059 q 0,0.89982 0.33927,1.30548 0.33928,0.40565 0.97358,0.40565 0.43516,0 0.77444,-0.24339 0.34665,-0.24339 0.6343,-0.87032 0.29503,-0.6343 0.47204,-1.571 0.18439,-0.9367 0.18439,-1.70376 0,-0.96621 -0.37616,-1.34974 -0.37615,-0.38353 -0.91457,-0.38353 -0.56792,0 -1.00308,0.43516 -0.42779,0.43516 -0.75969,1.70376 -0.32452,1.26123 -0.32452,2.27169 z m 2.60358,-5.5317 z m -1.77014,8.13529 z m 7.22808,-0.64905 q -0.39828,-0.35403 -0.39828,-0.74494 0,-0.0885 0.0295,-0.18438 0.0295,-0.10327 0.0516,-0.12539 0.0221,-0.0295 0.11801,-0.0885 0.98095,-0.59742 1.20959,-0.78918 l -0.28027,0.007 q -0.85557,0 -1.45299,-0.44991 -0.59742,-0.44992 -0.59742,-1.43824 0,-0.49417 0.14751,-0.94408 0.14751,-0.45729 0.39828,-0.81132 0.25077,-0.35402 0.50891,-0.53841 0.25815,-0.19177 0.7892,-0.42041 0.53842,-0.23602 0.95145,-0.36878 0.41303,-0.13276 0.71543,-0.13276 0.24339,0 0.47941,0.0369 0.23602,0.0295 0.3319,0.059 0.10327,0.0295 0.36878,0.14014 l 0.22127,0.0811 q 0.0221,0.0147 0.44254,0.0369 0.42779,0.0221 0.64167,0.0221 0.19177,0 0.64906,-0.0295 0.32452,-0.0221 0.4204,-0.0221 l 0.0811,0.11802 -0.16963,0.77443 q -0.14014,-0.0295 -0.56792,-0.0516 -0.42779,-0.0221 -0.4868,-0.0221 -0.0737,0 -0.25077,0.0147 0.16965,0.38353 0.16965,0.85556 0,0.51629 -0.19177,1.02521 -0.18439,0.50892 -0.43516,0.84082 -0.25077,0.32452 -0.6048,0.53104 -0.35403,0.19914 -0.9662,0.43516 -0.41303,0.16227 -0.61218,0.2729 -0.19914,0.10326 -0.32452,0.25077 -0.11802,0.14751 -0.11802,0.25815 0,0.1475 0.13276,0.32452 0.13277,0.17702 0.88508,0.69331 1.06946,0.74493 1.42349,1.17272 0.3614,0.43516 0.3614,1.03995 0,1.15797 -1.12109,1.85865 -1.12109,0.70069 -2.70684,0.70069 -0.95883,0 -1.69639,-0.2434 -0.73756,-0.23602 -1.09159,-0.6933 -0.35402,-0.45729 -0.35402,-0.98095 0,-0.64169 0.56054,-1.26123 0.56054,-0.61218 1.88077,-1.05471 z m 0.2434,-3.83531 q 0,0.75231 0.30977,1.06946 0.31715,0.31715 0.80394,0.31715 0.50892,0 0.84819,-0.35403 0.33928,-0.3614 0.51629,-0.98095 0.17702,-0.62693 0.17702,-1.22435 0,-0.74494 -0.32452,-1.04733 -0.32453,-0.3024 -0.78919,-0.3024 -0.73757,0 -1.14322,0.78181 -0.39828,0.77444 -0.39828,1.74064 z m 0.0811,4.12296 -0.65643,0.32453 q -0.32453,0.16963 -0.53104,0.32452 -0.20652,0.15489 -0.36878,0.3614 -0.16226,0.2139 -0.2434,0.45729 -0.0811,0.2434 -0.0811,0.50154 0,0.50154 0.26553,0.84082 0.26552,0.33928 0.75231,0.53104 0.48679,0.19915 1.07684,0.19915 0.9072,0 1.43824,-0.42779 0.53104,-0.42041 0.53104,-1.01783 0,-0.34665 -0.26552,-0.67118 -0.26552,-0.32453 -1.91766,-1.42349 z m 5.66446,-5.12604 -0.14752,-0.25815 0.0147,-0.0959 q 1.29811,-1.01046 2.02092,-1.43086 0.73018,-0.42042 1.13584,-0.42042 0.18439,0 0.31715,0.16227 0.13276,0.15488 0.13276,0.39828 0,0.32452 -0.11801,0.81869 -0.11064,0.49417 -0.47942,1.87341 -0.64167,2.37493 -0.64167,2.75109 0,0.10326 0.059,0.18439 0.0664,0.0738 0.14751,0.0738 0.22127,0 1.18009,-0.68594 l 0.0885,0.007 0.16227,0.29502 -0.0295,0.0959 q -0.51629,0.36878 -1.23173,0.8482 -0.71543,0.47203 -1.02521,0.59004 -0.30239,0.11802 -0.53104,0.11802 -0.28765,0 -0.42778,-0.2139 -0.14014,-0.21389 -0.14014,-0.55317 0,-0.33928 0.0811,-0.76706 0.0885,-0.43516 0.36878,-1.49725 0.61955,-2.36756 0.61955,-2.78797 0,-0.20652 -0.16964,-0.20652 -0.28027,0 -1.28336,0.70806 z m 2.89123,-2.64784 z m 2.97974,-3.21576 q -2.57408,1.77014 -3.93119,2.81748 l -0.38354,-0.19915 0.0516,-0.0959 1.21698,-1.38661 q 0.3909,-0.44254 0.95883,-1.06946 l 0.11063,-0.0738 0.97358,-0.0885 0.89245,-0.11063 0.0737,0.0369 z m 6.26189,9.30063 0.16226,0.28765 -0.0295,0.0959 q -1.33498,0.98095 -1.83652,1.25385 -0.49417,0.27289 -0.82607,0.27289 -0.23602,0 -0.37615,-0.19913 -0.13277,-0.19914 -0.13277,-0.50155 0,-0.30977 0.11801,-0.89982 0.11801,-0.59004 0.50892,-2.1463 -1.2391,2.12418 -2.22743,2.94287 -0.98833,0.81131 -1.61526,0.81131 -0.33927,0 -0.59004,-0.3024 -0.2434,-0.3024 -0.2434,-1.09159 0,-0.6933 0.20651,-1.61525 0.20652,-0.92195 0.58268,-1.86603 0.19176,-0.47203 0.44991,-0.75969 0.26552,-0.29502 1.13584,-0.92932 0.87032,-0.6343 1.23172,-0.76706 0.36879,-0.13276 0.82608,-0.13276 0.32452,0 0.76706,0.10326 0.44253,0.0959 0.81131,0.28765 l 0.67855,-0.39829 0.2434,0.17702 q -0.18439,0.43516 -0.44991,1.60788 l -0.5458,2.49295 q -0.28764,1.3276 -0.28764,1.62263 0,0.28765 0.19176,0.28765 0.23602,0 1.15797,-0.6343 z m -2.07255,-4.40323 q -0.65643,-0.33191 -1.20959,-0.33191 -0.5753,0 -0.92933,0.45729 -0.35403,0.45729 -0.76706,2.03566 -0.41303,1.57839 -0.41303,2.33807 0,0.55317 0.29502,0.55317 0.30977,0 1.10634,-0.92932 0.79656,-0.92933 1.30548,-2.0578 0.51629,-1.12847 0.61217,-2.06516 z m -0.52366,-1.68164 z m -1.91028,8.13528 z"
       id="text46"
       aria-label="psicología" /></g></svg>
